<mxfile host="app.diagrams.net" modified="2021-10-18T07:44:35.973Z" agent="5.0 (Macintosh; Intel Mac OS X 10_15_7) AppleWebKit/537.36 (KHTML, like Gecko) Chrome/90.0.4430.212 Safari/537.36" etag="OOdEAGQjZfatcbtHKCLz" version="15.5.4" type="github">
  <diagram id="fozNPiQ9PhHpP17jWGTu" name="Page-1">
    <mxGraphModel dx="1298" dy="724" grid="1" gridSize="10" guides="1" tooltips="1" connect="1" arrows="1" fold="1" page="1" pageScale="1" pageWidth="827" pageHeight="1169" math="0" shadow="0">
      <root>
        <mxCell id="0" />
        <mxCell id="1" parent="0" />
        <mxCell id="zkZtOivwLqVj8oFNl9dB-10" style="edgeStyle=orthogonalEdgeStyle;rounded=0;orthogonalLoop=1;jettySize=auto;html=1;exitX=1;exitY=0.3333333333333333;exitDx=0;exitDy=0;exitPerimeter=0;entryX=0;entryY=0.5;entryDx=0;entryDy=0;fontSize=14;" edge="1" parent="1" source="zkZtOivwLqVj8oFNl9dB-1" target="zkZtOivwLqVj8oFNl9dB-4">
          <mxGeometry relative="1" as="geometry" />
        </mxCell>
        <mxCell id="zkZtOivwLqVj8oFNl9dB-11" style="edgeStyle=orthogonalEdgeStyle;rounded=0;orthogonalLoop=1;jettySize=auto;html=1;exitX=1;exitY=0.3333333333333333;exitDx=0;exitDy=0;exitPerimeter=0;entryX=0;entryY=0.5;entryDx=0;entryDy=0;fontSize=14;" edge="1" parent="1" source="zkZtOivwLqVj8oFNl9dB-1" target="zkZtOivwLqVj8oFNl9dB-2">
          <mxGeometry relative="1" as="geometry" />
        </mxCell>
        <mxCell id="zkZtOivwLqVj8oFNl9dB-12" style="edgeStyle=orthogonalEdgeStyle;rounded=0;orthogonalLoop=1;jettySize=auto;html=1;exitX=1;exitY=0.3333333333333333;exitDx=0;exitDy=0;exitPerimeter=0;entryX=0;entryY=0.5;entryDx=0;entryDy=0;fontSize=14;" edge="1" parent="1" source="zkZtOivwLqVj8oFNl9dB-1" target="zkZtOivwLqVj8oFNl9dB-3">
          <mxGeometry relative="1" as="geometry" />
        </mxCell>
        <mxCell id="zkZtOivwLqVj8oFNl9dB-13" style="edgeStyle=orthogonalEdgeStyle;rounded=0;orthogonalLoop=1;jettySize=auto;html=1;exitX=1;exitY=0.3333333333333333;exitDx=0;exitDy=0;exitPerimeter=0;entryX=0;entryY=0.5;entryDx=0;entryDy=0;fontSize=14;" edge="1" parent="1" source="zkZtOivwLqVj8oFNl9dB-1" target="zkZtOivwLqVj8oFNl9dB-5">
          <mxGeometry relative="1" as="geometry" />
        </mxCell>
        <mxCell id="zkZtOivwLqVj8oFNl9dB-14" style="edgeStyle=orthogonalEdgeStyle;rounded=0;orthogonalLoop=1;jettySize=auto;html=1;exitX=1;exitY=0.3333333333333333;exitDx=0;exitDy=0;exitPerimeter=0;entryX=0;entryY=0.5;entryDx=0;entryDy=0;fontSize=14;" edge="1" parent="1" source="zkZtOivwLqVj8oFNl9dB-1" target="zkZtOivwLqVj8oFNl9dB-6">
          <mxGeometry relative="1" as="geometry" />
        </mxCell>
        <mxCell id="zkZtOivwLqVj8oFNl9dB-15" style="edgeStyle=orthogonalEdgeStyle;rounded=0;orthogonalLoop=1;jettySize=auto;html=1;exitX=1;exitY=0.3333333333333333;exitDx=0;exitDy=0;exitPerimeter=0;entryX=0;entryY=0.5;entryDx=0;entryDy=0;fontSize=14;" edge="1" parent="1" source="zkZtOivwLqVj8oFNl9dB-1" target="zkZtOivwLqVj8oFNl9dB-9">
          <mxGeometry relative="1" as="geometry" />
        </mxCell>
        <mxCell id="zkZtOivwLqVj8oFNl9dB-1" value="Actor" style="shape=umlActor;verticalLabelPosition=bottom;verticalAlign=top;html=1;outlineConnect=0;fillColor=#d5e8d4;strokeColor=#82b366;" vertex="1" parent="1">
          <mxGeometry x="150" y="450" width="50" height="90" as="geometry" />
        </mxCell>
        <mxCell id="zkZtOivwLqVj8oFNl9dB-2" value="&lt;font style=&quot;font-size: 14px&quot;&gt;签约咨询&lt;/font&gt;" style="ellipse;whiteSpace=wrap;html=1;fillColor=#dae8fc;strokeColor=#6c8ebf;" vertex="1" parent="1">
          <mxGeometry x="560" y="240" width="120" height="80" as="geometry" />
        </mxCell>
        <mxCell id="zkZtOivwLqVj8oFNl9dB-3" value="&lt;font style=&quot;font-size: 14px&quot;&gt;签约申请&lt;/font&gt;" style="ellipse;whiteSpace=wrap;html=1;fillColor=#f8cecc;strokeColor=#b85450;" vertex="1" parent="1">
          <mxGeometry x="560" y="370" width="120" height="80" as="geometry" />
        </mxCell>
        <mxCell id="zkZtOivwLqVj8oFNl9dB-4" value="&lt;font style=&quot;font-size: 14px&quot;&gt;预创单&lt;/font&gt;" style="ellipse;whiteSpace=wrap;html=1;fillColor=#dae8fc;strokeColor=#6c8ebf;" vertex="1" parent="1">
          <mxGeometry x="560" y="110" width="120" height="80" as="geometry" />
        </mxCell>
        <mxCell id="zkZtOivwLqVj8oFNl9dB-5" value="&lt;font style=&quot;font-size: 14px&quot;&gt;签约确认&lt;/font&gt;" style="ellipse;whiteSpace=wrap;html=1;fillColor=#dae8fc;strokeColor=#6c8ebf;" vertex="1" parent="1">
          <mxGeometry x="560" y="504.5" width="120" height="80" as="geometry" />
        </mxCell>
        <mxCell id="zkZtOivwLqVj8oFNl9dB-6" value="&lt;font style=&quot;font-size: 14px&quot;&gt;解冻&lt;/font&gt;" style="ellipse;whiteSpace=wrap;html=1;fillColor=#dae8fc;strokeColor=#6c8ebf;" vertex="1" parent="1">
          <mxGeometry x="560" y="630" width="120" height="80" as="geometry" />
        </mxCell>
        <mxCell id="zkZtOivwLqVj8oFNl9dB-9" value="&lt;font style=&quot;font-size: 14px&quot;&gt;退出结算&lt;/font&gt;" style="ellipse;whiteSpace=wrap;html=1;fillColor=#dae8fc;strokeColor=#6c8ebf;" vertex="1" parent="1">
          <mxGeometry x="560" y="760" width="120" height="80" as="geometry" />
        </mxCell>
      </root>
    </mxGraphModel>
  </diagram>
</mxfile>
